<svg width="27" height="27" viewBox="0 0 27 27" fill="none" xmlns="http://www.w3.org/2000/svg">
<mask id="mask0_167_516" style="mask-type:alpha" maskUnits="userSpaceOnUse" x="0" y="0" width="27" height="27">
<rect width="27" height="27" fill="#D9D9D9"/>
</mask>
<g mask="url(#mask0_167_516)">
<path d="M22.6687 14.625H9V12.375H22.6687L20.925 10.6313L22.5 9L27 13.5L22.5 18L20.925 16.3688L22.6687 14.625ZM16.875 10.125V5.625H5.625V21.375H16.875V16.875H19.125V21.375C19.125 21.9937 18.9047 22.5234 18.4641 22.9641C18.0234 23.4047 17.4937 23.625 16.875 23.625H5.625C5.00625 23.625 4.47656 23.4047 4.03594 22.9641C3.59531 22.5234 3.375 21.9937 3.375 21.375V5.625C3.375 5.00625 3.59531 4.47656 4.03594 4.03594C4.47656 3.59531 5.00625 3.375 5.625 3.375H16.875C17.4937 3.375 18.0234 3.59531 18.4641 4.03594C18.9047 4.47656 19.125 5.00625 19.125 5.625V10.125H16.875Z" fill="#F6F6F6"/>
</g>
</svg>
