<svg width="18" height="18" viewBox="0 0 18 18" fill="none" xmlns="http://www.w3.org/2000/svg">
<path d="M4.06254 13.2476C4.78504 12.6951 5.59254 12.2595 6.48504 11.9407C7.37754 11.622 8.31254 11.4626 9.29004 11.4626C10.2675 11.4626 11.2025 11.622 12.095 11.9407C12.9875 12.2595 13.795 12.6951 14.5175 13.2476C15.0134 12.6668 15.3994 12.008 15.6757 11.2713C15.9519 10.5347 16.09 9.74843 16.09 8.9126C16.09 7.02843 15.4277 5.42406 14.1032 4.09947C12.7786 2.77489 11.1742 2.1126 9.29004 2.1126C7.40587 2.1126 5.8015 2.77489 4.47691 4.09947C3.15233 5.42406 2.49004 7.02843 2.49004 8.9126C2.49004 9.74843 2.62816 10.5347 2.90441 11.2713C3.18066 12.008 3.56671 12.6668 4.06254 13.2476ZM9.29004 9.7626C8.45421 9.7626 7.74941 9.47572 7.17566 8.90197C6.60191 8.32822 6.31504 7.62343 6.31504 6.7876C6.31504 5.95176 6.60191 5.24697 7.17566 4.67322C7.74941 4.09947 8.45421 3.8126 9.29004 3.8126C10.1259 3.8126 10.8307 4.09947 11.4044 4.67322C11.9782 5.24697 12.265 5.95176 12.265 6.7876C12.265 7.62343 11.9782 8.32822 11.4044 8.90197C10.8307 9.47572 10.1259 9.7626 9.29004 9.7626ZM9.29004 17.4126C8.11421 17.4126 7.00921 17.1895 5.97504 16.7432C4.94087 16.297 4.04129 15.6913 3.27629 14.9263C2.51129 14.1613 1.90566 13.2618 1.45941 12.2276C1.01316 11.1934 0.790039 10.0884 0.790039 8.9126C0.790039 7.73676 1.01316 6.63176 1.45941 5.5976C1.90566 4.56343 2.51129 3.66385 3.27629 2.89885C4.04129 2.13385 4.94087 1.52822 5.97504 1.08197C7.00921 0.635723 8.11421 0.412598 9.29004 0.412598C10.4659 0.412598 11.5709 0.635723 12.605 1.08197C13.6392 1.52822 14.5388 2.13385 15.3038 2.89885C16.0688 3.66385 16.6744 4.56343 17.1207 5.5976C17.5669 6.63176 17.79 7.73676 17.79 8.9126C17.79 10.0884 17.5669 11.1934 17.1207 12.2276C16.6744 13.2618 16.0688 14.1613 15.3038 14.9263C14.5388 15.6913 13.6392 16.297 12.605 16.7432C11.5709 17.1895 10.4659 17.4126 9.29004 17.4126ZM9.29004 15.7126C10.0409 15.7126 10.7492 15.6028 11.415 15.3832C12.0809 15.1636 12.69 14.8484 13.2425 14.4376C12.69 14.0268 12.0809 13.7116 11.415 13.492C10.7492 13.2724 10.0409 13.1626 9.29004 13.1626C8.53921 13.1626 7.83087 13.2724 7.16504 13.492C6.49921 13.7116 5.89004 14.0268 5.33754 14.4376C5.89004 14.8484 6.49921 15.1636 7.16504 15.3832C7.83087 15.6028 8.53921 15.7126 9.29004 15.7126ZM9.29004 8.0626C9.65837 8.0626 9.96296 7.94218 10.2038 7.70135C10.4446 7.46051 10.565 7.15593 10.565 6.7876C10.565 6.41926 10.4446 6.11468 10.2038 5.87385C9.96296 5.63301 9.65837 5.5126 9.29004 5.5126C8.92171 5.5126 8.61712 5.63301 8.37629 5.87385C8.13546 6.11468 8.01504 6.41926 8.01504 6.7876C8.01504 7.15593 8.13546 7.46051 8.37629 7.70135C8.61712 7.94218 8.92171 8.0626 9.29004 8.0626Z" fill="#9A9A9A"/>
</svg>
