<svg width="17" height="13" viewBox="0 0 17 13" fill="none" xmlns="http://www.w3.org/2000/svg">
<path d="M2.39004 12.4126C1.95004 12.4126 1.57337 12.2657 1.26004 11.972C0.946706 11.6782 0.790039 11.3251 0.790039 10.9126V1.9126C0.790039 1.5001 0.946706 1.14697 1.26004 0.853223C1.57337 0.559473 1.95004 0.412598 2.39004 0.412598H15.19C15.63 0.412598 16.0067 0.559473 16.32 0.853223C16.6334 1.14697 16.79 1.5001 16.79 1.9126V10.9126C16.79 11.3251 16.6334 11.6782 16.32 11.972C16.0067 12.2657 15.63 12.4126 15.19 12.4126H2.39004ZM8.79004 7.1626L2.39004 3.4126V10.9126H15.19V3.4126L8.79004 7.1626ZM8.79004 5.6626L15.19 1.9126H2.39004L8.79004 5.6626ZM2.39004 3.4126V1.9126V10.9126V3.4126Z" fill="#9A9A9A"/>
</svg>
