<svg width="17" height="12" viewBox="0 0 17 12" fill="none" xmlns="http://www.w3.org/2000/svg">
<path d="M10.39 6.6001H14.39V5.2251H10.39V6.6001ZM10.39 4.5376H14.39V3.1626H10.39V4.5376ZM3.19004 8.6626H9.59004V8.28447C9.59004 7.76885 9.29671 7.35921 8.71004 7.05557C8.12337 6.75192 7.35004 6.6001 6.39004 6.6001C5.43004 6.6001 4.65671 6.75192 4.07004 7.05557C3.48337 7.35921 3.19004 7.76885 3.19004 8.28447V8.6626ZM6.39004 5.9126C6.83004 5.9126 7.20671 5.77796 7.52004 5.50869C7.83337 5.23942 7.99004 4.91572 7.99004 4.5376C7.99004 4.15947 7.83337 3.83577 7.52004 3.5665C7.20671 3.29723 6.83004 3.1626 6.39004 3.1626C5.95004 3.1626 5.57337 3.29723 5.26004 3.5665C4.94671 3.83577 4.79004 4.15947 4.79004 4.5376C4.79004 4.91572 4.94671 5.23942 5.26004 5.50869C5.57337 5.77796 5.95004 5.9126 6.39004 5.9126ZM2.39004 11.4126C1.95004 11.4126 1.57337 11.278 1.26004 11.0087C0.946706 10.7394 0.790039 10.4157 0.790039 10.0376V1.7876C0.790039 1.40947 0.946706 1.08577 1.26004 0.816504C1.57337 0.547233 1.95004 0.412598 2.39004 0.412598H15.19C15.63 0.412598 16.0067 0.547233 16.32 0.816504C16.6334 1.08577 16.79 1.40947 16.79 1.7876V10.0376C16.79 10.4157 16.6334 10.7394 16.32 11.0087C16.0067 11.278 15.63 11.4126 15.19 11.4126H2.39004ZM2.39004 10.0376H15.19V1.7876H2.39004V10.0376Z" fill="#9A9A9A"/>
</svg>
