<svg width="15" height="14" viewBox="0 0 15 14" fill="none" xmlns="http://www.w3.org/2000/svg">
<path d="M3.75 11.2H5.25L0 12.6L6.75 9.8V8.4H5.25V7H3.75V8.4H2.25V9.8H3.75V11.2ZM8.25 8.75H12.75V7.7H8.25V8.75ZM8.25 10.85H11.25V9.8H8.25V10.85ZM1.5 14C1.0875 14 0.734375 13.8629 0.440625 13.5887C0.146875 13.3146 0 12.985 0 12.6V4.9C0 4.515 0.146875 4.18542 0.440625 3.91125C0.734375 3.63708 1.0875 3.5 1.5 3.5H5.25V1.4C5.25 1.015 5.39687 0.685417 5.69062 0.41125C5.98437 0.137083 6.3375 0 6.75 0H8.25C8.6625 0 9.01563 0.137083 9.30938 0.41125C9.60313 0.685417 9.75 1.015 9.75 1.4V3.5H13.5C13.9125 3.5 14.2656 3.63708 14.5594 3.91125C14.8531 4.18542 15 4.515 15 4.9V12.6C15 12.985 14.8531 13.3146 14.5594 13.5887C14.2656 13.8629 13.9125 14 13.5 14H1.5ZM1.5 12.6H13.5V4.9H9.75C9.75 5.285 9.60313 5.61458 9.30938 5.88875C9.01563 6.16292 8.6625 6.3 8.25 6.3H6.75C6.3375 6.3 5.98437 6.16292 5.69062 5.88875C5.39687 5.61458 5.25 5.285 5.25 4.9H1.5V12.6ZM6.75 4.9H8.25V1.4H6.75V4.9Z" fill="#9A9A9A"/>
</svg>
