<svg width="19" height="14" viewBox="0 0 19 14" fill="none" xmlns="http://www.w3.org/2000/svg">
<path d="M2.59004 13.4126C2.09504 13.4126 1.67129 13.2786 1.31879 13.0106C0.966289 12.7426 0.790039 12.4205 0.790039 12.0442V4.51786C0.790039 4.14155 0.966289 3.8194 1.31879 3.55141C1.67129 3.28343 2.09504 3.14944 2.59004 3.14944H6.19004V1.78102C6.19004 1.4047 6.36629 1.08255 6.71879 0.814571C7.07129 0.546589 7.49504 0.412598 7.99004 0.412598H11.59C12.085 0.412598 12.5088 0.546589 12.8613 0.814571C13.2138 1.08255 13.39 1.4047 13.39 1.78102V3.14944H16.99C17.485 3.14944 17.9088 3.28343 18.2613 3.55141C18.6138 3.8194 18.79 4.14155 18.79 4.51786V12.0442C18.79 12.4205 18.6138 12.7426 18.2613 13.0106C17.9088 13.2786 17.485 13.4126 16.99 13.4126H2.59004ZM2.59004 12.0442H16.99V4.51786H2.59004V12.0442ZM7.99004 3.14944H11.59V1.78102H7.99004V3.14944Z" fill="#9A9A9A"/>
</svg>
