<svg width="16" height="13" viewBox="0 0 16 13" fill="none" xmlns="http://www.w3.org/2000/svg">
<path id="id_card" d="M9.6 7.65281H13.6V6.12503H9.6V7.65281ZM9.6 5.36114H13.6V3.83336H9.6V5.36114ZM2.4 9.94448H8.8V9.52434C8.8 8.95142 8.50667 8.49627 7.92 8.15889C7.33333 7.8215 6.56 7.65281 5.6 7.65281C4.64 7.65281 3.86667 7.8215 3.28 8.15889C2.69333 8.49627 2.4 8.95142 2.4 9.52434V9.94448ZM5.6 6.88892C6.04 6.88892 6.41667 6.73932 6.73 6.44013C7.04333 6.14094 7.2 5.78128 7.2 5.36114C7.2 4.941 7.04333 4.58134 6.73 4.28215C6.41667 3.98296 6.04 3.83336 5.6 3.83336C5.16 3.83336 4.78333 3.98296 4.47 4.28215C4.15667 4.58134 4 4.941 4 5.36114C4 5.78128 4.15667 6.14094 4.47 6.44013C4.78333 6.73932 5.16 6.88892 5.6 6.88892ZM1.6 13C1.16 13 0.783333 12.8504 0.47 12.5512C0.156667 12.2521 0 11.8924 0 11.4723V2.30559C0 1.88545 0.156667 1.52578 0.47 1.22659C0.783333 0.927403 1.16 0.777808 1.6 0.777808H14.4C14.84 0.777808 15.2167 0.927403 15.53 1.22659C15.8433 1.52578 16 1.88545 16 2.30559V11.4723C16 11.8924 15.8433 12.2521 15.53 12.5512C15.2167 12.8504 14.84 13 14.4 13H1.6ZM1.6 11.4723H14.4V2.30559H1.6V11.4723Z" fill="#9A9A9A"/>
</svg>
