<svg width="24" height="18" viewBox="0 0 24 18" fill="none" xmlns="http://www.w3.org/2000/svg">
<g id="work">
<mask id="mask0_2_111" style="mask-type:alpha" maskUnits="userSpaceOnUse" x="0" y="0" width="24" height="18">
<rect id="Bounding box" y="3.05176e-05" width="24" height="18" fill="#D9D9D9"/>
</mask>
<g mask="url(#mask0_2_111)">
<path id="badge" d="M4 16.5C3.45 16.5 2.97917 16.3532 2.5875 16.0594C2.19583 15.7657 2 15.4125 2 15V6.75003C2 6.33753 2.19583 5.98441 2.5875 5.69066C2.97917 5.39691 3.45 5.25003 4 5.25003H9V3.00003C9 2.58753 9.19583 2.23441 9.5875 1.94066C9.97917 1.64691 10.45 1.50003 11 1.50003H13C13.55 1.50003 14.0208 1.64691 14.4125 1.94066C14.8042 2.23441 15 2.58753 15 3.00003V5.25003H20C20.55 5.25003 21.0208 5.39691 21.4125 5.69066C21.8042 5.98441 22 6.33753 22 6.75003V15C22 15.4125 21.8042 15.7657 21.4125 16.0594C21.0208 16.3532 20.55 16.5 20 16.5H4ZM4 15H20V6.75003H15C15 7.16253 14.8042 7.51566 14.4125 7.80941C14.0208 8.10316 13.55 8.25003 13 8.25003H11C10.45 8.25003 9.97917 8.10316 9.5875 7.80941C9.19583 7.51566 9 7.16253 9 6.75003H4V15ZM6 13.5H12V13.1625C12 12.95 11.9208 12.7532 11.7625 12.5719C11.6042 12.3907 11.3833 12.25 11.1 12.15C10.7667 12.0375 10.4292 11.9532 10.0875 11.8969C9.74583 11.8407 9.38333 11.8125 9 11.8125C8.61667 11.8125 8.25417 11.8407 7.9125 11.8969C7.57083 11.9532 7.23333 12.0375 6.9 12.15C6.61667 12.25 6.39583 12.3907 6.2375 12.5719C6.07917 12.7532 6 12.95 6 13.1625V13.5ZM14 12.375H18V11.25H14V12.375ZM9 11.25C9.41667 11.25 9.77083 11.1407 10.0625 10.9219C10.3542 10.7032 10.5 10.4375 10.5 10.125C10.5 9.81253 10.3542 9.54691 10.0625 9.32816C9.77083 9.10941 9.41667 9.00003 9 9.00003C8.58333 9.00003 8.22917 9.10941 7.9375 9.32816C7.64583 9.54691 7.5 9.81253 7.5 10.125C7.5 10.4375 7.64583 10.7032 7.9375 10.9219C8.22917 11.1407 8.58333 11.25 9 11.25ZM14 10.125H18V9.00003H14V10.125ZM11 6.75003H13V3.00003H11V6.75003Z" fill="#9A9A9A"/>
</g>
</g>
</svg>
