<svg width="17" height="19" viewBox="0 0 17 19" fill="none" xmlns="http://www.w3.org/2000/svg">
<path id="account_circle" d="M3.2725 14.109C3.995 13.517 4.8025 13.0503 5.695 12.7087C6.5875 12.3672 7.5225 12.1965 8.5 12.1965C9.4775 12.1965 10.4125 12.3672 11.305 12.7087C12.1975 13.0503 13.005 13.517 13.7275 14.109C14.2233 13.4866 14.6094 12.7808 14.8856 11.9916C15.1619 11.2023 15.3 10.3599 15.3 9.46432C15.3 7.44557 14.6377 5.7266 13.3131 4.3074C11.9885 2.8882 10.3842 2.17861 8.5 2.17861C6.61583 2.17861 5.01146 2.8882 3.68688 4.3074C2.36229 5.7266 1.7 7.44557 1.7 9.46432C1.7 10.3599 1.83812 11.2023 2.11438 11.9916C2.39062 12.7808 2.77667 13.4866 3.2725 14.109ZM8.5 10.375C7.66417 10.375 6.95938 10.0677 6.38563 9.45294C5.81188 8.83821 5.525 8.08307 5.525 7.18753C5.525 6.292 5.81188 5.53687 6.38563 4.92213C6.95938 4.3074 7.66417 4.00003 8.5 4.00003C9.33583 4.00003 10.0406 4.3074 10.6144 4.92213C11.1881 5.53687 11.475 6.292 11.475 7.18753C11.475 8.08307 11.1881 8.83821 10.6144 9.45294C10.0406 10.0677 9.33583 10.375 8.5 10.375ZM8.5 18.5715C7.32417 18.5715 6.21917 18.3324 5.185 17.8543C4.15083 17.3762 3.25125 16.7273 2.48625 15.9076C1.72125 15.088 1.11563 14.1241 0.669375 13.0161C0.223125 11.9081 0 10.7241 0 9.46432C0 8.2045 0.223125 7.02057 0.669375 5.91253C1.11563 4.8045 1.72125 3.84066 2.48625 3.02102C3.25125 2.20137 4.15083 1.55249 5.185 1.07437C6.21917 0.59624 7.32417 0.357178 8.5 0.357178C9.67583 0.357178 10.7808 0.59624 11.815 1.07437C12.8492 1.55249 13.7488 2.20137 14.5138 3.02102C15.2788 3.84066 15.8844 4.8045 16.3306 5.91253C16.7769 7.02057 17 8.2045 17 9.46432C17 10.7241 16.7769 11.9081 16.3306 13.0161C15.8844 14.1241 15.2788 15.088 14.5138 15.9076C13.7488 16.7273 12.8492 17.3762 11.815 17.8543C10.7808 18.3324 9.67583 18.5715 8.5 18.5715ZM8.5 16.75C9.25083 16.75 9.95917 16.6324 10.625 16.3971C11.2908 16.1619 11.9 15.8241 12.4525 15.384C11.9 14.9438 11.2908 14.6061 10.625 14.3708C9.95917 14.1355 9.25083 14.0179 8.5 14.0179C7.74917 14.0179 7.04083 14.1355 6.375 14.3708C5.70917 14.6061 5.1 14.9438 4.5475 15.384C5.1 15.8241 5.70917 16.1619 6.375 16.3971C7.04083 16.6324 7.74917 16.75 8.5 16.75ZM8.5 8.55361C8.86833 8.55361 9.17292 8.42459 9.41375 8.16655C9.65458 7.90852 9.775 7.58218 9.775 7.18753C9.775 6.79289 9.65458 6.46655 9.41375 6.20852C9.17292 5.95048 8.86833 5.82146 8.5 5.82146C8.13167 5.82146 7.82708 5.95048 7.58625 6.20852C7.34542 6.46655 7.225 6.79289 7.225 7.18753C7.225 7.58218 7.34542 7.90852 7.58625 8.16655C7.82708 8.42459 8.13167 8.55361 8.5 8.55361Z" fill="#9A9A9A"/>
</svg>
