<svg width="16" height="13" viewBox="0 0 16 13" fill="none" xmlns="http://www.w3.org/2000/svg">
<path id="mail" d="M1.6 12.3064C1.16 12.3064 0.783333 12.1574 0.47 11.8593C0.156667 11.5613 0 11.203 0 10.7845V1.65322C0 1.2347 0.156667 0.876421 0.47 0.578386C0.783333 0.28035 1.16 0.131332 1.6 0.131332H14.4C14.84 0.131332 15.2167 0.28035 15.53 0.578386C15.8433 0.876421 16 1.2347 16 1.65322V10.7845C16 11.203 15.8433 11.5613 15.53 11.8593C15.2167 12.1574 14.84 12.3064 14.4 12.3064H1.6ZM8 6.97981L1.6 3.1751V10.7845H14.4V3.1751L8 6.97981ZM8 5.45792L14.4 1.65322H1.6L8 5.45792ZM1.6 3.1751V1.65322V10.7845V3.1751Z" fill="#9A9A9A"/>
</svg>
