<svg width="18" height="14" viewBox="0 0 18 14" fill="none" xmlns="http://www.w3.org/2000/svg">
<path id="work" d="M1.8 13.3377C1.305 13.3377 0.88125 13.2016 0.52875 12.9293C0.17625 12.657 0 12.3297 0 11.9473V4.29997C0 3.9176 0.17625 3.59027 0.52875 3.31798C0.88125 3.04569 1.305 2.90954 1.8 2.90954H5.4V1.51911C5.4 1.13675 5.57625 0.809415 5.92875 0.537123C6.28125 0.264831 6.705 0.128685 7.2 0.128685H10.8C11.295 0.128685 11.7188 0.264831 12.0712 0.537123C12.4237 0.809415 12.6 1.13675 12.6 1.51911V2.90954H16.2C16.695 2.90954 17.1187 3.04569 17.4713 3.31798C17.8237 3.59027 18 3.9176 18 4.29997V11.9473C18 12.3297 17.8237 12.657 17.4713 12.9293C17.1187 13.2016 16.695 13.3377 16.2 13.3377H1.8ZM1.8 11.9473H16.2V4.29997H1.8V11.9473ZM7.2 2.90954H10.8V1.51911H7.2V2.90954Z" fill="#9A9A9A"/>
</svg>
